<svg width="247" height="259" viewBox="0 0 247 259" fill="none" xmlns="http://www.w3.org/2000/svg">
<path fill-rule="evenodd" clip-rule="evenodd" d="M75.8844 0.0955938C70.6263 0.825027 66.3086 4.70554 64.9278 9.94225L64.5829 11.2506L64.5347 36.8121L64.4866 62.3736L63.3764 63.0002C37.7316 77.474 24.2748 85.5298 19.9794 88.979C16.839 91.5009 13.0502 95.3224 10.5788 98.4612C4.7363 105.881 1.48467 113.357 0.274192 122.151C-0.0911666 124.806 -0.0914741 130.575 0.273731 133.233C1.61184 142.974 5.25943 151.179 11.4616 158.399C19.1383 167.337 29.5822 172.96 41.5073 174.578C44.2359 174.948 50.0932 174.951 52.8863 174.583C61.8533 173.404 69.7488 170.063 76.7976 164.466C78.8843 162.809 82.3652 159.321 84.08 157.168C90.0271 149.703 93.5712 140.811 94.3256 131.463C94.4522 129.895 94.4858 113.143 94.4495 69.9716C94.4019 13.3986 94.3868 10.592 94.1234 9.71137C92.7345 5.06941 89.116 1.52398 84.6004 0.380964C83.5621 0.11822 82.7487 0.0509565 80.1037 0.00908993C78.3276 -0.0189238 76.4289 0.0200184 75.8844 0.0955938ZM110.467 36.8697C108.871 37.2068 107.607 37.78 104.181 39.7188L101.555 41.2057V58.3527V75.4997L103.131 74.6061C103.998 74.1147 108.513 71.5779 113.164 68.9688C117.816 66.3598 122.002 63.9682 122.467 63.6542C124.255 62.4471 125.769 60.6592 126.76 58.5814C127.704 56.6052 128.029 55.1639 128.029 52.9633C128.029 49.9887 127.53 48.5025 125.148 44.3851C123.73 41.934 122.669 40.5741 121.364 39.5353C118.195 37.0132 114.3 36.0601 110.467 36.8697ZM203.505 73.7687C194.243 74.1724 186.677 76.7297 180.944 81.3939L179.834 82.297L178.637 81.3421C173.783 77.4692 168.025 75.1741 160.654 74.1741C157.841 73.7924 149.906 73.7939 146.763 74.1767C131.734 76.0071 121.55 82.7057 116.275 94.2307C114.294 98.5591 113.066 103.745 112.633 109.606C112.423 112.45 112.417 158.438 112.626 161.721C112.907 166.119 113.907 168.704 116.207 170.974C117.655 172.403 119.543 173.388 121.912 173.951C124.533 174.574 131.892 174.53 134.573 173.876C138.135 173.007 140.663 171.026 142.146 167.943C142.963 166.246 143.292 165.069 143.528 163.003C143.629 162.125 143.686 152.518 143.687 136.284C143.688 110.241 143.702 109.576 144.302 107.647C144.747 106.217 145.259 105.602 146.517 104.991C148.371 104.089 149.647 103.911 154.221 103.914C157.869 103.917 158.342 103.948 159.625 104.269C162.811 105.068 163.707 106.261 164.124 110.258C164.221 111.182 164.31 121.545 164.356 137.158C164.438 164.936 164.405 163.957 165.341 166.604C166.698 170.444 169.564 172.907 173.817 173.891C175.525 174.287 181.286 174.461 183.628 174.188C186.879 173.81 189.241 172.83 191.109 171.084C193 169.317 194.03 167.368 194.691 164.312C194.955 163.088 194.97 161.569 194.97 136.773C194.97 109.429 194.966 109.626 195.605 107.714C196.097 106.242 196.921 105.315 198.3 104.685C199.896 103.955 201.215 103.785 205.35 103.779C209.702 103.773 211.333 104.017 213.061 104.936C214.459 105.679 214.924 106.472 215.529 109.145C215.652 109.691 215.732 117.499 215.805 136.081C215.879 155.24 215.956 162.536 216.09 163.325C217.191 169.788 220.491 173.089 226.801 174.041C228.827 174.347 234.684 174.303 236.537 173.969C242.919 172.818 246.089 169.299 246.871 162.495C246.992 161.451 247.024 153.45 246.983 135.311C246.919 107.293 246.944 108.144 246.022 103.165C242.891 86.2589 231.959 76.4344 213.802 74.2087C211.837 73.9678 206.447 73.6477 205.196 73.6974C204.815 73.7126 204.054 73.7447 203.505 73.7687ZM64.4608 113.724L64.4179 130.54L63.9956 132.075C62.3238 138.156 57.6478 142.762 51.4516 144.433C50.1092 144.795 49.6957 144.834 47.1968 144.834C44.6908 144.834 44.2867 144.795 42.9255 144.428C39.9222 143.619 37.1379 142.016 34.9739 139.85C32.8094 137.683 31.207 134.895 30.4008 131.891C30.0397 130.546 29.9966 130.108 29.9959 127.769C29.9951 125.365 30.0288 125.04 30.4121 123.767C31.4951 120.17 33.9484 116.545 37.3841 113.465C39.0653 111.957 40.1172 111.217 43.8907 108.886C48.8254 105.838 64.0912 96.9172 64.3846 96.9106C64.4501 96.909 64.4844 104.475 64.4608 113.724ZM55.5004 196.033C53.6293 196.315 51.7518 197.103 50.2722 198.227C48.8334 199.32 43.2758 205.067 42.6829 206.075C40.3678 210.012 40.4195 214.596 42.8209 218.285C43.5243 219.365 48.7328 224.569 51.8099 227.265C71.2241 244.276 95.1421 255.128 119.853 258.137C126.142 258.902 135.826 259.214 141.885 258.845C166.828 257.329 189.668 249.003 209.271 234.282C214.617 230.268 218.505 226.859 223.433 221.867C225.809 219.46 226.657 218.494 227.105 217.685C228.876 214.486 229.043 210.688 227.557 207.448C226.744 205.676 225.899 204.64 222.625 201.408C219.432 198.254 218.713 197.672 217.133 196.955C213.621 195.36 209.408 195.687 206.195 197.802C205.688 198.136 203.854 199.8 202.121 201.5C198.544 205.006 197.024 206.381 194.268 208.603C179.195 220.754 161.014 227.873 141.458 229.278C138.663 229.479 130.987 229.477 128.234 229.275C111.288 228.029 94.6943 222.149 80.6067 212.395C75.7823 209.055 71.7572 205.712 67.0962 201.175C63.2494 197.43 61.9666 196.626 59.0257 196.112C57.6081 195.865 56.7472 195.846 55.5004 196.033Z" fill="#202AD0"/>
</svg>
